<?xml version="1.0" encoding="UTF-8" standalone="no"?>
<svg
   xmlns:dc="http://purl.org/dc/elements/1.1/"
   xmlns:cc="http://creativecommons.org/ns#"
   xmlns:rdf="http://www.w3.org/1999/02/22-rdf-syntax-ns#"
   xmlns:svg="http://www.w3.org/2000/svg"
   xmlns="http://www.w3.org/2000/svg"
   xmlns:sodipodi="http://sodipodi.sourceforge.net/DTD/sodipodi-0.dtd"
   xmlns:inkscape="http://www.inkscape.org/namespaces/inkscape"
   width="100mm"
   height="100mm"
   viewBox="0 0 100 100"
   version="1.1"
   id="svg8"
   inkscape:version="1.0.2-2 (e86c870879, 2021-01-15)"
   sodipodi:docname="search.svg">
  <defs
     id="defs2" />
  <sodipodi:namedview
     id="base"
     pagecolor="#ffffff"
     bordercolor="#666666"
     borderopacity="1.0"
     inkscape:pageopacity="0.0"
     inkscape:pageshadow="2"
     inkscape:zoom="1.4"
     inkscape:cx="148.97445"
     inkscape:cy="133.85839"
     inkscape:document-units="mm"
     inkscape:current-layer="layer1"
     inkscape:document-rotation="0"
     showgrid="false"
     inkscape:pagecheckerboard="true"
     borderlayer="false"
     inkscape:window-width="1560"
     inkscape:window-height="1198"
     inkscape:window-x="548"
     inkscape:window-y="34"
     inkscape:window-maximized="0" />
  <metadata
     id="metadata5">
    <rdf:RDF>
      <cc:Work
         rdf:about="">
        <dc:format>image/svg+xml</dc:format>
        <dc:type
           rdf:resource="http://purl.org/dc/dcmitype/StillImage" />
        <dc:title></dc:title>
      </cc:Work>
    </rdf:RDF>
  </metadata>
  <g
     inkscape:label="Warstwa 1"
     inkscape:groupmode="layer"
     id="layer1">
    <path
       id="path1402"
       style="fill:#000000;stroke:#000000;stroke-width:3.49999"
       d="M 40.324892,15.22326 A 23.529018,23.529018 0 0 0 16.795581,38.752571 23.529018,23.529018 0 0 0 40.324892,62.281368 23.529018,23.529018 0 0 0 63.853689,38.752571 23.529018,23.529018 0 0 0 40.324892,15.22326 Z M 40.282,21.179483 a 17.572969,17.572969 0 0 1 0.04289,0 A 17.572969,17.572969 0 0 1 57.897979,38.752571 17.572969,17.572969 0 0 1 40.324892,56.325658 17.572969,17.572969 0 0 1 22.751804,38.752571 17.572969,17.572969 0 0 1 40.282,21.179483 Z" />
    <rect
       style="fill:#000000;stroke:#000000;stroke-width:3.65901"
       id="rect1404"
       width="41.242798"
       height="7.810348"
       x="-115.85318"
       y="-5.0169744"
       ry="1.8285792"
       transform="rotate(-135)" />
  </g>
</svg>
